<svg width="187" height="239" viewBox="0 0 187 239" fill="none" xmlns="http://www.w3.org/2000/svg">
<rect y="117" width="187" height="88" rx="7" fill="black"/>
<path d="M9.5 44.2H29.5V113H9.5V44.2ZM48.1 86.5H33.7V70.5H48.1V44.2H68.1V113H48.1V86.5ZM94.782 112.7C88.782 112.7 84.7487 110.867 82.682 107.2C81.7487 105.6 81.1154 103.667 80.782 101.4C80.4487 99.0667 80.282 96.2333 80.282 92.9V62H98.782V85.1C98.782 88.6333 98.8154 90.9667 98.882 92.1C99.0154 93.8333 99.2154 95.0333 99.482 95.7C99.7487 96.4333 100.182 96.9 100.782 97.1C101.382 97.2333 102.449 97.3 103.982 97.3H104.982V109.7C102.315 111.7 98.9154 112.7 94.782 112.7ZM101.682 133.6C98.2154 133.6 94.1487 133.4 89.482 133L83.682 132.4V119.5H97.082C99.482 119.5 101.815 119.433 104.082 119.3C105.682 119.167 106.849 118.833 107.582 118.3C108.382 117.833 108.849 117 108.982 115.8C109.115 114.2 109.182 112.5 109.182 110.7V62H127.682V107.4C127.682 112.733 127.449 116.867 126.982 119.8C126.582 122.733 125.615 125.167 124.082 127.1C122.349 129.3 119.715 130.933 116.182 132C112.649 133.067 107.815 133.6 101.682 133.6Z" fill="black"/>
<path d="M9.5 126.2H29.5V195H9.5V126.2ZM33.7 179.7H34.5C37.7667 179.7 40.0667 179.567 41.4 179.3C42.8 178.967 43.8333 178.233 44.5 177.1C45.2333 175.9 45.6333 174 45.7 171.4C45.8333 168.067 45.9 164.467 45.9 160.6C45.9 156.8 45.8333 153.167 45.7 149.7C45.5667 147.1 45.1333 145.2 44.4 144C43.7333 142.8 42.6333 142.067 41.1 141.8C39.5667 141.6 37.3667 141.5 34.5 141.5H33.7V126.2H34.5C39.8333 126.2 44.2667 126.433 47.8 126.9C51.4 127.367 54.3667 128.1 56.7 129.1C58.9667 130.1 60.7667 131.467 62.1 133.2C63.4333 134.933 64.4 137.1 65 139.7C65.5333 142.033 65.8667 144.8 66 148C66.2 151.133 66.3 155.333 66.3 160.6C66.3 165.933 66.2 170.167 66 173.3C65.8667 176.433 65.5333 179.167 65 181.5C64.4 184.1 63.4333 186.267 62.1 188C60.7667 189.733 58.9667 191.1 56.7 192.1C54.3667 193.1 51.4 193.833 47.8 194.3C44.2667 194.767 39.8333 195 34.5 195H33.7V179.7ZM97.7688 164.5H104.769C104.769 160.767 104.402 158.367 103.669 157.3C103.269 156.7 102.735 156.333 102.069 156.2C101.402 156 100.435 155.9 99.1688 155.9H97.7688V143.2H99.1688C104.902 143.2 109.302 143.667 112.369 144.6C115.502 145.533 117.802 147.067 119.269 149.2C120.602 151.067 121.402 153.467 121.669 156.4C122.002 159.333 122.169 163.733 122.169 169.6V173.6H97.7688V164.5ZM101.169 195.8C95.0354 195.8 90.2021 195.3 86.6688 194.3C83.2021 193.233 80.6021 191.567 78.8688 189.3C77.3354 187.3 76.3354 184.833 75.8688 181.9C75.4021 178.9 75.1688 174.8 75.1688 169.6C75.1688 164.8 75.3354 161 75.6688 158.2C76.0021 155.333 76.7021 152.9 77.7688 150.9C78.9688 148.7 80.8021 147 83.2688 145.8C85.8021 144.533 89.2354 143.733 93.5688 143.4V173.6C93.5688 175.867 93.6688 177.5 93.8688 178.5C94.0688 179.433 94.5354 180.133 95.2688 180.6C96.0688 181.133 97.3021 181.433 98.9688 181.5C101.102 181.633 103.369 181.7 105.769 181.7C110.035 181.7 113.135 181.6 115.069 181.4L120.169 181V193.9C117.502 194.7 113.835 195.233 109.169 195.5C106.902 195.7 104.235 195.8 101.169 195.8ZM126.656 144H145.556L159.256 195H141.556L126.656 144ZM156.356 168L161.556 144H179.756L164.856 195H163.656L156.356 168Z" fill="white"/>
<rect x="109" y="62" width="19" height="75" fill="#DD0D0D"/>
<rect x="109" y="62" width="19" height="56" fill="black"/>
</svg>
