<svg t="1754303863978" class="icon" viewBox="0 0 1024 1024" version="1.1" xmlns="http://www.w3.org/2000/svg" p-id="1637" width="200" height="200"><path d="M64.533333 490.026667A448 448 0 0 1 512 64a447.914667 447.914667 0 0 1 434.56 339.136 439.466667 439.466667 0 0 1 11.285333 64.96A448 448 0 0 1 960 512a448 448 0 0 1-4.842667 65.728 448 448 0 0 1-14.442666 64.32A448 448 0 0 1 907.093333 723.2a456.533333 456.533333 0 0 1-35.285333 55.68 448 448 0 0 1-58.965333 65.088 448 448 0 0 1-70.549334 52.309333 448 448 0 0 1-38.762666 20.736 448 448 0 0 1-82.688 29.568 439.466667 439.466667 0 0 1-64.96 11.285334A448 448 0 0 1 512 960a448 448 0 0 1-65.728-4.842667 448 448 0 0 1-64.32-14.442666A448 448 0 0 1 300.8 907.093333a456.533333 456.533333 0 0 1-55.68-35.285333 448 448 0 0 1-65.088-58.965333 448 448 0 0 1-73.045333-109.312A448 448 0 0 1 64 512a448 448 0 0 1 0.533333-21.973333m221.909334-24.192h34.794666v-86.208h91.989334v86.186666h34.816v-198.229333H413.226667v79.872h-91.989334v-79.872h-34.794666z m277.696 0h32.96v-133.546667l54.165333 85.034667h16.768l1.728-2.56 52.544-83.690667v134.762667h33.216v-198.250667h-30.528l-1.109333 1.92-63.018667 101.696-64.938667-103.616h-31.786666z m-145.493334 95.488a101.76 101.76 0 0 0-51.989333-13.653334q-28.458667 0-51.968 13.653334a100.266667 100.266667 0 0 0-37.077333 37.141333 101.76 101.76 0 0 0-13.589334 51.84q0 28.309333 13.589334 51.84a101.589333 101.589333 0 0 0 89.045333 50.773333q28.458667 0 51.968-13.632a101.674667 101.674667 0 0 0 50.645333-88.981333q0-28.352-13.568-51.84a100.266667 100.266667 0 0 0-37.077333-37.141333m182.592 18.304q-9.024 13.589333-9.002667 30.976c0 27.285333 16.554667 45.866667 49.066667 55.552l28.992 8.426666q14.186667 4.352 20.8 10.581334a19.2 19.2 0 0 1 6.293333 14.549333c0 7.424-3.050667 13.376-9.365333 18.048q-9.642667 7.253333-25.173333 7.253333a57.6 57.6 0 0 1-27.093334-6.677333 44.8 44.8 0 0 1-16.746666-15.210667l-1.322667-2.154666-2.517333-4.373334-4.202667 2.112-1.344 0.682667-18.048 9.898667a64 64 0 0 0-3.306667 2.026666l-1.92 1.237334 1.898667 4.16 0.682667 1.408q8.810667 16.96 27.776 26.986666 20.736 10.986667 47.210666 10.965334 20.053333 0 35.626667-7.082667 15.701333-7.146667 24.448-20.608 8.746667-13.44 8.725333-31.082667c0-27.285333-16.298667-45.866667-48.256-55.466666l-28.757333-8.469334q-15.018667-4.352-21.76-10.602666a18.986667 18.986667 0 0 1-6.4-14.528c0-7.253333 3.050667-13.226667 9.386667-18.090667q9.664-7.466667 24.618666-7.466667a43.733333 43.733333 0 0 1 24.021334 6.698667c5.269333 3.306667 9.749333 7.744 13.098666 12.992l1.152 1.92 3.050667 5.248 4.928-2.816 17.706667-10.730667 1.792-1.173333 3.136-2.133333-1.856-3.946667-0.618667-1.28a61.866667 61.866667 0 0 0-24.789333-25.536q-18.005333-10.368-41.621334-10.346667-19.797333 0-35.498666 7.210667a58.666667 58.666667 0 0 0-24.810667 20.842667m-268.586667 11.904a66.133333 66.133333 0 0 1 34.005334-8.853334v0.021334a66.773333 66.773333 0 0 1 34.005333 8.853333c10.133333 5.781333 18.474667 14.229333 24.170667 24.405333a71.253333 71.253333 0 0 1 0 68.693334 64 64 0 0 1-24.170667 24.405333 69.76 69.76 0 0 1-68.010667 0 64 64 0 0 1-24.170666-24.405333 71.466667 71.466667 0 0 1 0-68.714667 64 64 0 0 1 24.149333-24.405333m-35.968 218.56h139.946667v-29.12h-139.946667z" fill="current" p-id="1638"></path></svg>